<svg width="20" height="20" viewBox="0 0 20 20" fill="none" xmlns="http://www.w3.org/2000/svg">
<path d="M18.4816 18L1.5025 18C1.18084 18 0.872365 18.1054 0.644922 18.2929C0.41748 18.4804 0.289703 18.7348 0.289703 19C0.289703 19.2652 0.41748 19.5196 0.644922 19.7071C0.872365 19.8946 1.18084 20 1.5025 20L18.4816 20C18.8032 20 19.1117 19.8946 19.3392 19.7071C19.5666 19.5196 19.6944 19.2652 19.6944 19C19.6944 18.7348 19.5666 18.4804 19.3392 18.2929C19.1117 18.1054 18.8032 18 18.4816 18ZM9.13096 15.71C9.2463 15.801 9.38231 15.8724 9.53118 15.92C9.67635 15.9729 9.83332 16.0002 9.99204 16.0002C10.1508 16.0002 10.3077 15.9729 10.4529 15.92C10.6018 15.8724 10.7378 15.801 10.8531 15.71L15.7043 11.71C15.9327 11.5217 16.061 11.2663 16.061 11C16.061 10.7337 15.9327 10.4783 15.7043 10.29C15.4759 10.1017 15.1662 9.99591 14.8432 9.99591C14.5202 9.99591 14.2105 10.1017 13.9821 10.29L11.2048 12.59L11.2048 1C11.2048 0.734784 11.0771 0.48043 10.8496 0.292893C10.6222 0.105357 10.3137 0 9.99204 0C9.67039 0 9.36191 0.105357 9.13447 0.292893C8.90702 0.48043 8.77925 0.734784 8.77925 1L8.77925 12.59L6.00195 10.29C5.88888 10.1968 5.75463 10.1228 5.60689 10.0723C5.45914 10.0219 5.30079 9.99591 5.14087 9.99591C4.98095 9.99591 4.8226 10.0219 4.67486 10.0723C4.52711 10.1228 4.39287 10.1968 4.27979 10.29C4.16671 10.3832 4.07701 10.4939 4.01581 10.6158C3.95462 10.7376 3.92312 10.8681 3.92312 11C3.92312 11.1319 3.95462 11.2624 4.01581 11.3842C4.07701 11.5061 4.16671 11.6168 4.27979 11.71L9.13096 15.71Z" fill="#232C39"/>
</svg>
