<svg width="30" height="30" viewBox="0 0 30 30" fill="none" xmlns="http://www.w3.org/2000/svg">
<path d="M15 1.875C7.75371 1.875 1.875 7.75371 1.875 15C1.875 22.2463 7.75371 28.125 15 28.125C22.2463 28.125 28.125 22.2527 28.125 15C28.125 7.74727 22.2463 1.875 15 1.875ZM23.3332 7.9248C24.8518 9.71006 25.7558 11.9366 25.9113 14.2752C23.5459 14.1521 20.7158 14.1521 18.4465 14.3643C18.1594 13.6395 17.8652 12.9287 17.5441 12.2449C20.1609 11.1105 22.1777 9.61992 23.3332 7.9248ZM15 4.0623C17.5494 4.05792 20.0195 4.94833 21.9797 6.57832C20.7902 8.08184 18.924 9.39082 16.5996 10.3787C15.3281 8.02734 13.865 6.0041 12.3047 4.41094C13.1852 4.18363 14.0906 4.06652 15 4.0623ZM10.0506 5.25879C11.6297 6.83086 13.1133 8.83301 14.4123 11.1768C11.9443 11.9309 9.11426 12.3633 6.09375 12.3633C5.51953 12.3633 4.95938 12.3428 4.40566 12.3082C4.79083 10.7992 5.49362 9.38975 6.46709 8.17408C7.44055 6.95841 8.66226 5.96451 10.0506 5.25879ZM4.08281 14.4803C4.70508 14.5078 5.33379 14.5213 5.96953 14.5148C9.41484 14.4738 12.6211 13.9336 15.3762 13.05C15.6359 13.5902 15.882 14.1439 16.1145 14.7111C15.7816 14.784 15.4547 14.8819 15.1365 15.0041C11.3701 16.5861 8.40352 19.1355 6.79688 22.2188C5.03517 20.2267 4.06259 17.6593 4.0623 15C4.0623 14.8242 4.06934 14.6514 4.08281 14.4803ZM15 25.9377C12.57 25.9407 10.2091 25.1295 8.29395 23.6338C9.75 20.7492 12.3475 18.3604 15.6223 16.8797C15.9299 16.7361 16.34 16.6201 16.8117 16.5176C17.2023 17.5973 17.551 18.7184 17.8576 19.8809C18.3156 21.6354 18.6529 23.4193 18.8672 25.2199C17.6327 25.6929 16.322 25.9362 15 25.9377ZM20.9133 24.1945C20.6994 22.3752 20.3589 20.573 19.8943 18.801C19.66 17.9121 19.3957 17.0508 19.1086 16.21C21.2549 16.0342 23.8254 16.0594 25.8691 16.21C25.689 17.8257 25.1507 19.3809 24.2934 20.7622C23.436 22.1435 22.2813 23.3161 20.9133 24.1945Z" fill="#6958DF"/>
</svg>
