<svg width="44" height="45" viewBox="0 0 44 45" fill="none" xmlns="http://www.w3.org/2000/svg">
<path d="M26.776 9.65986C28.6464 10.0248 30.3654 10.9395 31.7129 12.2871C33.0605 13.6346 33.9752 15.3536 34.3401 17.224M26.776 2C30.662 2.4317 34.2857 4.1719 37.0522 6.93488C39.8186 9.69785 41.5634 13.3194 42 17.2048M40.085 32.4862V38.2311C40.0872 38.7644 39.978 39.2923 39.7643 39.781C39.5506 40.2697 39.2373 40.7083 38.8443 41.0688C38.4513 41.4294 37.9873 41.7039 37.4821 41.8747C36.9769 42.0456 36.4416 42.1091 35.9104 42.0611C30.0177 41.4208 24.3574 39.4072 19.3843 36.1821C14.7574 33.242 10.8346 29.3192 7.89448 24.6923C4.65815 19.6966 2.64412 14.0087 2.01554 8.08959C1.96769 7.56004 2.03062 7.02632 2.20034 6.52243C2.37005 6.01853 2.64283 5.55549 3.0013 5.1628C3.35977 4.7701 3.79609 4.45634 4.28246 4.24151C4.76884 4.02667 5.29461 3.91547 5.82632 3.91496H11.5712C12.5006 3.90582 13.4015 4.23491 14.1062 4.84091C14.8108 5.44691 15.2711 6.28846 15.4011 7.2087C15.6436 9.0472 16.0933 10.8524 16.7416 12.5898C16.9993 13.2752 17.055 14.0201 16.9023 14.7362C16.7496 15.4523 16.3947 16.1097 15.8799 16.6303L13.4479 19.0623C16.1739 23.8565 20.1435 27.8261 24.9377 30.5521L27.3697 28.1201C27.8903 27.6053 28.5477 27.2504 29.2638 27.0977C29.9799 26.945 30.7248 27.0007 31.4102 27.2584C33.1476 27.9067 34.9528 28.3564 36.7913 28.5989C37.7215 28.7301 38.5711 29.1986 39.1784 29.9154C39.7857 30.6321 40.1083 31.5471 40.085 32.4862Z" stroke="white" stroke-width="4" stroke-linecap="round" stroke-linejoin="round"/>
</svg>
