<svg width="44" height="46" viewBox="0 0 44 46" fill="none" xmlns="http://www.w3.org/2000/svg">
<path d="M38 2H6C3.79086 2 2 3.79086 2 6V14C2 16.2091 3.79086 18 6 18H38C40.2091 18 42 16.2091 42 14V6C42 3.79086 40.2091 2 38 2Z" stroke="white" stroke-width="4" stroke-linecap="round" stroke-linejoin="round"/>
<path d="M10 10H10.02" stroke="white" stroke-width="4" stroke-linecap="round" stroke-linejoin="round"/>
<path d="M38 28H6C3.79086 28 2 29.7909 2 32V40C2 42.2091 3.79086 44 6 44H38C40.2091 44 42 42.2091 42 40V32C42 29.7909 40.2091 28 38 28Z" stroke="white" stroke-width="4" stroke-linecap="round" stroke-linejoin="round"/>
<path d="M10 36H10.02" stroke="white" stroke-width="4" stroke-linecap="round" stroke-linejoin="round"/>
</svg>
