<svg width="41" height="40" viewBox="0 0 41 40" fill="none" xmlns="http://www.w3.org/2000/svg">
<path d="M39.4108 27.1508L30.53 18.1325C30.7159 17.2114 30.808 16.2733 30.8051 15.333C30.8044 12.7548 30.1651 10.2184 28.9463 7.95815C27.7275 5.69794 25.9685 3.78691 23.8319 2.4017C21.6953 1.01648 19.2501 0.201795 16.7222 0.032934C14.1944 -0.135927 11.6655 0.34649 9.36935 1.43559C9.07844 1.57084 8.82437 1.77633 8.6292 2.0342C8.43403 2.29207 8.30366 2.59453 8.24943 2.91532C8.1954 3.23203 8.21719 3.55733 8.31296 3.86365C8.40873 4.16997 8.57564 4.44828 8.79956 4.67499L17.3463 13.3534L13.8097 16.9527L5.28261 8.25432C5.05798 8.02997 4.78367 7.86382 4.48278 7.76987C4.18189 7.67591 3.86323 7.6569 3.55361 7.71442C3.24039 7.7676 2.9445 7.89725 2.69128 8.09228C2.43807 8.2873 2.23507 8.54188 2.09967 8.83421C1.02597 11.1788 0.552376 13.7617 0.72294 16.3425C0.893503 18.9234 1.70268 21.4185 3.07521 23.5956C4.44774 25.7727 6.33902 27.5612 8.57311 28.7946C10.8072 30.028 13.3115 30.6663 15.8531 30.6501C16.777 30.6532 17.6988 30.5594 18.6038 30.3702L27.4649 39.4085C27.6476 39.5959 27.8649 39.7447 28.1043 39.8462C28.3438 39.9477 28.6006 40 28.8599 40C29.1193 40 29.3761 39.9477 29.6155 39.8462C29.855 39.7447 30.0723 39.5959 30.2549 39.4085C30.4391 39.2226 30.5853 39.0015 30.685 38.7578C30.7848 38.5141 30.8361 38.2528 30.8361 37.9888C30.8361 37.7248 30.7848 37.4634 30.685 37.2198C30.5853 36.9761 30.4391 36.7549 30.2549 36.569L20.6275 26.7709C20.3869 26.5276 20.0886 26.3519 19.7615 26.2608C19.4344 26.1697 19.0897 26.1663 18.761 26.251C17.8123 26.5095 16.8352 26.6439 15.8531 26.6509C14.3836 26.6641 12.926 26.3812 11.5643 25.8186C10.2026 25.256 8.96377 24.4247 7.91913 23.3727C6.87449 22.3207 6.0447 21.0687 5.47755 19.6889C4.91041 18.3091 4.61712 16.8287 4.61459 15.333C4.61204 14.6632 4.66462 13.9943 4.77177 13.3334L12.4737 21.1919C12.6563 21.3793 12.8737 21.5281 13.1131 21.6296C13.3525 21.7311 13.6093 21.7834 13.8687 21.7834C14.1281 21.7834 14.3849 21.7311 14.6243 21.6296C14.8637 21.5281 15.081 21.3793 15.2637 21.1919L21.5117 14.7731C21.8658 14.4002 22.0638 13.9019 22.0638 13.3834C22.0638 12.8648 21.8658 12.3665 21.5117 11.9936L13.8687 4.15509C14.5182 4.04713 15.1753 3.99363 15.8335 3.99512C18.7846 4.00041 21.6132 5.19728 23.6981 7.32297C25.7831 9.44866 26.9541 12.3295 26.9541 15.333C26.9472 16.3325 26.8152 17.327 26.5611 18.2924C26.478 18.627 26.4813 18.9778 26.5708 19.3107C26.6604 19.6436 26.833 19.9472 27.072 20.1921L36.6994 29.9903C37.0694 30.3668 37.5712 30.5783 38.0944 30.5783C38.6176 30.5783 39.1194 30.3668 39.4894 29.9903C39.8594 29.6137 40.0672 29.103 40.0672 28.5705C40.0672 28.038 39.8594 27.5273 39.4894 27.1508H39.4108Z" fill="white"/>
</svg>
